<svg width="218" height="50" viewBox="0 0 218 50" fill="none" xmlns="http://www.w3.org/2000/svg">
<path d="M13.4 18H5V11.2H29.56V18H21.16V39.2H13.4V18Z" fill="#5574E2"/>
<path d="M41.4463 34.92C42.5663 34.92 43.4729 34.6 44.1663 33.96C44.8596 33.32 45.2063 32.4533 45.2063 31.36V30.36C44.8329 30.2 44.3796 30.0667 43.8463 29.96C43.3396 29.8533 42.8063 29.8 42.2463 29.8C41.1263 29.8 40.2596 30.0533 39.6463 30.56C39.0596 31.04 38.7663 31.68 38.7663 32.48V32.56C38.7663 33.3067 39.0196 33.8933 39.5262 34.32C40.0329 34.72 40.6729 34.92 41.4463 34.92ZM38.7262 39.68C37.6862 39.68 36.7263 39.5333 35.8463 39.24C34.9663 38.9467 34.1929 38.52 33.5263 37.96C32.8863 37.4 32.3796 36.7067 32.0063 35.88C31.6329 35.0533 31.4462 34.0933 31.4462 33V32.92C31.4462 31.8 31.6462 30.8133 32.0462 29.96C32.4729 29.1067 33.0463 28.4 33.7663 27.84C34.5129 27.28 35.4063 26.8533 36.4463 26.56C37.4863 26.2667 38.6463 26.12 39.9263 26.12C40.9396 26.12 41.8996 26.2133 42.8063 26.4C43.7396 26.56 44.5129 26.7467 45.1263 26.96V26.6C45.1263 25.48 44.7662 24.6133 44.0462 24C43.3529 23.3867 42.2729 23.08 40.8063 23.08C39.6596 23.08 38.6196 23.1867 37.6862 23.4C36.7529 23.6133 35.8063 23.9067 34.8463 24.28L33.2862 18.92C34.5129 18.4133 35.8063 18.0133 37.1663 17.72C38.5529 17.4 40.1796 17.24 42.0462 17.24C43.9929 17.24 45.6329 17.4667 46.9663 17.92C48.3263 18.3733 49.4329 19.0267 50.2863 19.88C51.1129 20.68 51.6996 21.6533 52.0462 22.8C52.4196 23.92 52.6063 25.24 52.6063 26.76V39.2H45.0863V36.96C44.3396 37.7867 43.4463 38.4533 42.4062 38.96C41.3929 39.44 40.1662 39.68 38.7262 39.68Z" fill="#5574E2"/>
<path d="M56.6316 10H64.2316V39.2H56.6316V10Z" fill="#5574E2"/>
<path d="M68.4637 10H76.0638V24.8L81.9437 17.56H90.5438L83.0238 26.24L90.7438 39.2H82.3838L78.0238 31.84L76.0638 34.12V39.2H68.4637V10Z" fill="#5574E2"/>
<path d="M101.165 39.64C98.872 39.64 97.0853 39.0933 95.8053 38C94.5253 36.9067 93.8853 35.0667 93.8853 32.48V23.68H91.3253V17.56H93.8853V12.08H101.485V17.56H106.525V23.68H101.485V31C101.485 31.7733 101.659 32.3333 102.005 32.68C102.352 33 102.872 33.16 103.565 33.16C104.072 33.16 104.565 33.0933 105.045 32.96C105.525 32.8267 105.992 32.6533 106.445 32.44V38.4C105.752 38.7733 104.965 39.0667 104.085 39.28C103.205 39.52 102.232 39.64 101.165 39.64Z" fill="#5574E2"/>
<path d="M109.952 17.56H117.552V39.2H109.952V17.56ZM109.792 10H117.712V15.6H109.792V10Z" fill="#5574E2"/>
<path d="M130.384 39.64C128.091 39.64 126.304 39.0933 125.024 38C123.744 36.9067 123.104 35.0667 123.104 32.48V23.68H120.544V17.56H123.104V12.08H130.704V17.56H135.744V23.68H130.704V31C130.704 31.7733 130.877 32.3333 131.224 32.68C131.571 33 132.091 33.16 132.784 33.16C133.291 33.16 133.784 33.0933 134.264 32.96C134.744 32.8267 135.211 32.6533 135.664 32.44V38.4C134.971 38.7733 134.184 39.0667 133.304 39.28C132.424 39.52 131.451 39.64 130.384 39.64Z" fill="#5574E2"/>
<path d="M146.211 39.68C143.891 39.68 142.077 38.9733 140.771 37.56C139.491 36.1467 138.851 34.2 138.851 31.72V17.56H146.451V29.28C146.451 30.48 146.731 31.3867 147.291 32C147.851 32.6133 148.597 32.92 149.531 32.92C150.437 32.92 151.184 32.6133 151.771 32C152.384 31.3867 152.691 30.48 152.691 29.28V17.56H160.291V39.2H152.691V36.24C151.997 37.1467 151.131 37.9467 150.091 38.64C149.051 39.3333 147.757 39.68 146.211 39.68Z" fill="#5574E2"/>
<path d="M175.442 33.32C176.056 33.32 176.629 33.2 177.162 32.96C177.696 32.72 178.162 32.3867 178.562 31.96C178.962 31.5067 179.269 30.9867 179.482 30.4C179.722 29.7867 179.842 29.12 179.842 28.4V28.32C179.842 27.6 179.722 26.9467 179.482 26.36C179.269 25.7733 178.962 25.2667 178.562 24.84C178.162 24.3867 177.696 24.04 177.162 23.8C176.629 23.56 176.056 23.44 175.442 23.44C174.829 23.44 174.256 23.56 173.722 23.8C173.189 24.04 172.722 24.3733 172.322 24.8C171.922 25.2267 171.602 25.7467 171.362 26.36C171.122 26.9467 171.002 27.6 171.002 28.32V28.4C171.002 29.12 171.122 29.7867 171.362 30.4C171.602 30.9867 171.922 31.5067 172.322 31.96C172.722 32.3867 173.189 32.72 173.722 32.96C174.256 33.2 174.829 33.32 175.442 33.32ZM173.122 39.68C171.842 39.68 170.616 39.4267 169.442 38.92C168.296 38.3867 167.282 37.64 166.402 36.68C165.549 35.72 164.856 34.5467 164.322 33.16C163.816 31.7733 163.562 30.2133 163.562 28.48V28.4C163.562 26.64 163.816 25.0667 164.322 23.68C164.829 22.2667 165.522 21.08 166.402 20.12C167.282 19.1333 168.296 18.3867 169.442 17.88C170.589 17.3467 171.802 17.08 173.082 17.08C174.709 17.08 176.042 17.4 177.082 18.04C178.122 18.6533 179.002 19.3733 179.722 20.2V10H187.322V39.2H179.722V36.32C178.976 37.2267 178.096 38.0133 177.082 38.68C176.069 39.3467 174.749 39.68 173.122 39.68Z" fill="#5574E2"/>
<path d="M205.233 26.6C205.1 25.4 204.7 24.4533 204.033 23.76C203.367 23.04 202.513 22.68 201.473 22.68C200.46 22.68 199.633 23.04 198.993 23.76C198.353 24.4533 197.927 25.4 197.713 26.6H205.233ZM202.113 39.72C200.407 39.72 198.847 39.4533 197.433 38.92C196.02 38.36 194.793 37.6 193.753 36.64C192.74 35.6533 191.94 34.4667 191.353 33.08C190.793 31.6933 190.513 30.16 190.513 28.48V28.4C190.513 26.8267 190.78 25.36 191.313 24C191.847 22.6133 192.593 21.4133 193.553 20.4C194.54 19.36 195.7 18.5467 197.033 17.96C198.367 17.3733 199.833 17.08 201.433 17.08C203.3 17.08 204.913 17.4 206.273 18.04C207.66 18.68 208.793 19.5467 209.673 20.64C210.58 21.7067 211.247 22.96 211.673 24.4C212.127 25.8133 212.353 27.32 212.353 28.92C212.353 29.16 212.353 29.4133 212.353 29.68C212.353 29.9467 212.34 30.2133 212.313 30.48H197.833C198.127 31.68 198.673 32.5733 199.473 33.16C200.3 33.7467 201.313 34.04 202.513 34.04C203.42 34.04 204.247 33.8667 204.993 33.52C205.767 33.1733 206.54 32.6133 207.313 31.84L211.513 35.32C210.473 36.6533 209.18 37.72 207.633 38.52C206.113 39.32 204.273 39.72 202.113 39.72Z" fill="#5574E2"/>
</svg>
