<svg width="140" height="29" viewBox="0 0 140 29" fill="none" xmlns="http://www.w3.org/2000/svg">
<path d="M10.25 11H5V6.75H20.35V11H15.1V24.25H10.25V11Z" fill="white"/>
<path d="M27.7789 21.575C28.4789 21.575 29.0456 21.375 29.4789 20.975C29.9122 20.575 30.1289 20.0333 30.1289 19.35V18.725C29.8956 18.625 29.6122 18.5417 29.2789 18.475C28.9622 18.4083 28.6289 18.375 28.2789 18.375C27.5789 18.375 27.0372 18.5333 26.6539 18.85C26.2872 19.15 26.1039 19.55 26.1039 20.05V20.1C26.1039 20.5667 26.2622 20.9333 26.5789 21.2C26.8956 21.45 27.2956 21.575 27.7789 21.575ZM26.0789 24.55C25.4289 24.55 24.8289 24.4583 24.2789 24.275C23.7289 24.0917 23.2456 23.825 22.8289 23.475C22.4289 23.125 22.1122 22.6917 21.8789 22.175C21.6456 21.6583 21.5289 21.0583 21.5289 20.375V20.325C21.5289 19.625 21.6539 19.0083 21.9039 18.475C22.1706 17.9417 22.5289 17.5 22.9789 17.15C23.4456 16.8 24.0039 16.5333 24.6539 16.35C25.3039 16.1667 26.0289 16.075 26.8289 16.075C27.4622 16.075 28.0622 16.1333 28.6289 16.25C29.2122 16.35 29.6956 16.4667 30.0789 16.6V16.375C30.0789 15.675 29.8539 15.1333 29.4039 14.75C28.9706 14.3667 28.2956 14.175 27.3789 14.175C26.6622 14.175 26.0122 14.2417 25.4289 14.375C24.8456 14.5083 24.2539 14.6917 23.6539 14.925L22.6789 11.575C23.4456 11.2583 24.2539 11.0083 25.1039 10.825C25.9706 10.625 26.9872 10.525 28.1539 10.525C29.3706 10.525 30.3956 10.6667 31.2289 10.95C32.0789 11.2333 32.7706 11.6417 33.3039 12.175C33.8206 12.675 34.1872 13.2833 34.4039 14C34.6372 14.7 34.7539 15.525 34.7539 16.475V24.25H30.0539V22.85C29.5872 23.3667 29.0289 23.7833 28.3789 24.1C27.7456 24.4 26.9789 24.55 26.0789 24.55Z" fill="white"/>
<path d="M37.2697 6H42.0197V24.25H37.2697V6Z" fill="white"/>
<path d="M44.6648 6H49.4148V15.25L53.0898 10.725H58.4648L53.7648 16.15L58.5898 24.25H53.3648L50.6398 19.65L49.4148 21.075V24.25H44.6648V6Z" fill="white"/>
<path d="M65.1033 24.525C63.67 24.525 62.5533 24.1833 61.7533 23.5C60.9533 22.8167 60.5533 21.6667 60.5533 20.05V14.55H58.9533V10.725H60.5533V7.3H65.3033V10.725H68.4533V14.55H65.3033V19.125C65.3033 19.6083 65.4117 19.9583 65.6283 20.175C65.845 20.375 66.17 20.475 66.6033 20.475C66.92 20.475 67.2283 20.4333 67.5283 20.35C67.8283 20.2667 68.12 20.1583 68.4033 20.025V23.75C67.97 23.9833 67.4783 24.1667 66.9283 24.3C66.3783 24.45 65.77 24.525 65.1033 24.525Z" fill="white"/>
<path d="M70.5949 10.725H75.3449V24.25H70.5949V10.725ZM70.4949 6H75.4449V9.5H70.4949V6Z" fill="white"/>
<path d="M83.365 24.525C81.9317 24.525 80.815 24.1833 80.015 23.5C79.215 22.8167 78.815 21.6667 78.815 20.05V14.55H77.215V10.725H78.815V7.3H83.565V10.725H86.715V14.55H83.565V19.125C83.565 19.6083 83.6734 19.9583 83.89 20.175C84.1067 20.375 84.4317 20.475 84.865 20.475C85.1817 20.475 85.49 20.4333 85.79 20.35C86.09 20.2667 86.3817 20.1583 86.665 20.025V23.75C86.2317 23.9833 85.74 24.1667 85.19 24.3C84.64 24.45 84.0317 24.525 83.365 24.525Z" fill="white"/>
<path d="M93.2566 24.55C91.8066 24.55 90.6733 24.1083 89.8566 23.225C89.0566 22.3417 88.6566 21.125 88.6566 19.575V10.725H93.4066V18.05C93.4066 18.8 93.5816 19.3667 93.9316 19.75C94.2816 20.1333 94.7483 20.325 95.3316 20.325C95.8983 20.325 96.365 20.1333 96.7316 19.75C97.115 19.3667 97.3066 18.8 97.3066 18.05V10.725H102.057V24.25H97.3066V22.4C96.8733 22.9667 96.3316 23.4667 95.6816 23.9C95.0316 24.3333 94.2233 24.55 93.2566 24.55Z" fill="white"/>
<path d="M111.526 20.575C111.91 20.575 112.268 20.5 112.601 20.35C112.935 20.2 113.226 19.9917 113.476 19.725C113.726 19.4417 113.918 19.1167 114.051 18.75C114.201 18.3667 114.276 17.95 114.276 17.5V17.45C114.276 17 114.201 16.5917 114.051 16.225C113.918 15.8583 113.726 15.5417 113.476 15.275C113.226 14.9917 112.935 14.775 112.601 14.625C112.268 14.475 111.91 14.4 111.526 14.4C111.143 14.4 110.785 14.475 110.451 14.625C110.118 14.775 109.826 14.9833 109.576 15.25C109.326 15.5167 109.126 15.8417 108.976 16.225C108.826 16.5917 108.751 17 108.751 17.45V17.5C108.751 17.95 108.826 18.3667 108.976 18.75C109.126 19.1167 109.326 19.4417 109.576 19.725C109.826 19.9917 110.118 20.2 110.451 20.35C110.785 20.5 111.143 20.575 111.526 20.575ZM110.076 24.55C109.276 24.55 108.51 24.3917 107.776 24.075C107.06 23.7417 106.426 23.275 105.876 22.675C105.343 22.075 104.91 21.3417 104.576 20.475C104.26 19.6083 104.101 18.6333 104.101 17.55V17.5C104.101 16.4 104.26 15.4167 104.576 14.55C104.893 13.6667 105.326 12.925 105.876 12.325C106.426 11.7083 107.06 11.2417 107.776 10.925C108.493 10.5917 109.251 10.425 110.051 10.425C111.068 10.425 111.901 10.625 112.551 11.025C113.201 11.4083 113.751 11.8583 114.201 12.375V6H118.951V24.25H114.201V22.45C113.735 23.0167 113.185 23.5083 112.551 23.925C111.918 24.3417 111.093 24.55 110.076 24.55Z" fill="white"/>
<path d="M130.146 16.375C130.063 15.625 129.813 15.0333 129.396 14.6C128.979 14.15 128.446 13.925 127.796 13.925C127.163 13.925 126.646 14.15 126.246 14.6C125.846 15.0333 125.579 15.625 125.446 16.375H130.146ZM128.196 24.575C127.129 24.575 126.154 24.4083 125.271 24.075C124.388 23.725 123.621 23.25 122.971 22.65C122.338 22.0333 121.838 21.2917 121.471 20.425C121.121 19.5583 120.946 18.6 120.946 17.55V17.5C120.946 16.5167 121.113 15.6 121.446 14.75C121.779 13.8833 122.246 13.1333 122.846 12.5C123.463 11.85 124.188 11.3417 125.021 10.975C125.854 10.6083 126.771 10.425 127.771 10.425C128.938 10.425 129.946 10.625 130.796 11.025C131.663 11.425 132.371 11.9667 132.921 12.65C133.488 13.3167 133.904 14.1 134.171 15C134.454 15.8833 134.596 16.825 134.596 17.825C134.596 17.975 134.596 18.1333 134.596 18.3C134.596 18.4667 134.588 18.6333 134.571 18.8H125.521C125.704 19.55 126.046 20.1083 126.546 20.475C127.063 20.8417 127.696 21.025 128.446 21.025C129.013 21.025 129.529 20.9167 129.996 20.7C130.479 20.4833 130.963 20.1333 131.446 19.65L134.071 21.825C133.421 22.6583 132.613 23.325 131.646 23.825C130.696 24.325 129.546 24.575 128.196 24.575Z" fill="white"/>
</svg>
